<svg width="73px" height="47px" viewBox="0 0 73 47" version="1.1" xmlns="http://www.w3.org/2000/svg" xmlns:xlink="http://www.w3.org/1999/xlink">
    <!-- Generator: Sketch 51.2 (57519) - http://www.bohemiancoding.com/sketch -->
    <desc>Created with Sketch.</desc>
    <defs>
        <polygon id="path-1" points="0.5212 0.7201 10.818 0.7201 10.818 34.2691 0.5212 34.2691"></polygon>
    </defs>
    <g id="Page-1" stroke="none" stroke-width="1" fill="none" fill-rule="evenodd">
        <g id="Home-Screen" transform="translate(-143.000000, -475.000000)">
            <g id="Group-13" transform="translate(17.000000, 422.000000)">
                <g id="Group" transform="translate(110.000000, 53.000000)">
                    <g id="Group-32" transform="translate(16.000000, 0.000000)">
                        <path d="M53.8702,34.3037 L62.4382,34.2967" id="Stroke-1" stroke="#004987" stroke-width="2.5"></path>
                        <g id="Group-31" transform="translate(0.000000, 0.418600)">
                            <path d="M27.6885,44.6234 C26.4705,44.8774 23.8025,45.0324 22.1075,42.1604 L14.9455,29.8734 L10.6005,29.8734" id="Stroke-2" stroke="#004987" stroke-width="2.5"></path>
                            <path d="M34.6837,31.8959 L38.9717,39.6229" id="Stroke-4" stroke="#004987" stroke-width="2.5" stroke-linecap="round"></path>
                            <path d="M28.4805,36.9447 L31.2635,41.7827" id="Stroke-6" stroke="#004987" stroke-width="2.5" stroke-linecap="round"></path>
                            <path d="M44.5069,41.3803 C43.2579,41.9083 40.8689,42.8963 38.9439,39.5943" id="Stroke-8" stroke="#004987" stroke-width="2.5"></path>
                            <path d="M35.7823,43.4496 C35.7823,43.4496 33.1683,45.2486 31.2673,41.7816" id="Stroke-10" stroke="#004987" stroke-width="2.5"></path>
                            <path d="M10.5821,4.9232 L24.7181,4.9232" id="Stroke-12" stroke="#004987" stroke-width="2.5"></path>
                            <polyline id="Stroke-14" stroke="#7D9FC2" stroke-width="2.5" points="0.0762 0.8314 10.2962 0.8314 10.2962 34.3804 0.0002 34.3804"></polyline>
                            <g id="Group-18" transform="translate(62.000000, 3.000000)">
                                <mask id="mask-2" fill="white">
                                    <use xlink:href="#path-1"></use>
                                </mask>
                                <g id="Clip-17"></g>
                                <polyline id="Stroke-16" stroke="#7D9FC2" stroke-width="4" mask="url(#mask-2)" points="10.7422 0.7201 0.5212 0.7201 0.5212 34.2691 10.8182 34.2691"></polyline>
                            </g>
                            <path d="M54.7198,35.2357 L43.1618,13.2077 C42.1818,13.1447 37.2008,12.6967 37.2008,12.6967 L30.3758,19.6287 C24.6798,23.9817 21.5658,17.5647 21.5658,17.5647 L30.3338,6.1357 C33.2738,2.4407 36.2328,2.3987 36.2328,2.3987 L49.4308,2.4177 L62.3558,8.0407" id="Stroke-19" stroke="#004987" stroke-width="2.5"></path>
                            <path d="M55.4786,34.3568 C54.9546,35.8388 51.5926,44.5068 47.2516,36.9168 L41.2056,27.4338" id="Stroke-21" stroke="#004987" stroke-width="2.5" stroke-linecap="round"></path>
                            <path d="M70.5765,29.6847 C70.1465,29.6847 69.7965,29.3377 69.7965,28.9057 C69.7965,28.4737 70.1465,28.1267 70.5765,28.1267 C71.0075,28.1267 71.3555,28.4737 71.3555,28.9057 C71.3555,29.3377 71.0075,29.6847 70.5765,29.6847 Z" id="Fill-23" fill="#7D9FC2"></path>
                            <path d="M71.3555,28.9057 C71.3555,29.3377 71.0075,29.6847 70.5765,29.6847 C70.1465,29.6847 69.7965,29.3377 69.7965,28.9057 C69.7965,28.4737 70.1465,28.1267 70.5765,28.1267 C71.0075,28.1267 71.3555,28.4737 71.3555,28.9057 Z" id="Stroke-25" stroke="#7D9FC2" stroke-width="2.5"></path>
                            <path d="M2.9981,25.9174 C2.9981,26.3494 2.6511,26.6964 2.2201,26.6964 C1.7901,26.6964 1.4401,26.3494 1.4401,25.9174 C1.4401,25.4854 1.7901,25.1384 2.2201,25.1384 C2.6511,25.1384 2.9981,25.4854 2.9981,25.9174" id="Fill-27" fill="#7D9FC2"></path>
                            <path d="M2.9981,25.9174 C2.9981,26.3494 2.6511,26.6964 2.2201,26.6964 C1.7901,26.6964 1.4401,26.3494 1.4401,25.9174 C1.4401,25.4854 1.7901,25.1384 2.2201,25.1384 C2.6511,25.1384 2.9981,25.4854 2.9981,25.9174 Z" id="Stroke-29" stroke="#7D9FC2" stroke-width="2.5"></path>
                        </g>
                    </g>
                </g>
            </g>
        </g>
    </g>
</svg>