<svg width="59px" height="71px" viewBox="0 0 59 71" version="1.1" xmlns="http://www.w3.org/2000/svg" xmlns:xlink="http://www.w3.org/1999/xlink">
    <!-- Generator: Sketch 51.2 (57519) - http://www.bohemiancoding.com/sketch -->
    <desc>Created with Sketch.</desc>
    <defs></defs>
    <g id="Page-1" stroke="none" stroke-width="1" fill="none" fill-rule="evenodd">
        <g id="Home-Screen" transform="translate(-66.000000, -291.000000)">
            <g id="Group-8" transform="translate(17.000000, 97.000000)">
                <g id="Group-7" transform="translate(0.000000, 163.000000)">
                    <g id="Group-3" transform="translate(38.000000, 31.000000)">
                        <g id="Group-19" transform="translate(12.000000, 0.000000)">
                            <polygon id="Stroke-1" stroke="#7D9FC2" stroke-width="2.5" points="26.95 69.6689 56.265 69.6689 56.265 49.9809 26.95 49.9809"></polygon>
                            <polyline id="Stroke-3" stroke="#7D9FC2" stroke-width="2.5" points="44.9443 50.1201 44.9443 57.4661 38.2693 57.4661 38.2693 50.1201"></polyline>
                            <g id="Group-18" transform="translate(0.000000, 0.918900)">
                                <path d="M14.8447,22.1348 C16.4417,27.9388 20.3727,32.2428 24.2337,32.2428 C28.8447,32.2428 33.5537,26.1048 34.2667,18.6058" id="Stroke-4" stroke="#004987" stroke-width="2.5" stroke-linejoin="round"></path>
                                <path d="M35.1162,13.9863 L34.8132,7.2243 C34.5282,4.2283 31.3042,2.5333 28.9232,2.2043 C26.4692,1.8623 24.3232,1.0903 24.2542,1.0653 C24.1842,1.0903 22.0382,1.8623 19.5842,2.2043 C17.2032,2.5333 13.9782,4.2283 13.6942,7.2243 L13.3912,13.9863 C12.8702,15.6343 11.9902,17.5333 14.3602,18.2363 C14.3602,18.2363 16.1232,18.7423 19.0822,17.1043 C19.9502,16.6243 20.9032,15.7303 24.2542,15.7303 C27.6042,15.7303 28.5572,16.6243 29.4252,17.1043 C32.3842,18.7423 34.1472,18.2363 34.1472,18.2363 C36.5172,17.5333 35.6372,15.6343 35.1162,13.9863 Z" id="Stroke-6" stroke="#004987" stroke-width="2.5"></path>
                                <path d="M13.3046,14.5117 C13.3046,14.5117 22.5416,5.7317 35.2026,14.2627" id="Stroke-8" stroke="#004987" stroke-width="2.5"></path>
                                <path d="M24.2539,0.3311 C23.6639,0.3311 23.1849,0.6501 23.1849,1.0431 L25.3219,1.0431 C25.3219,0.6501 24.8449,0.3311 24.2539,0.3311" id="Fill-10" fill="#004987"></path>
                                <path d="M24.2539,0.3311 C23.6639,0.3311 23.1849,0.6501 23.1849,1.0431 L25.3219,1.0431 C25.3219,0.6501 24.8449,0.3311 24.2539,0.3311 Z" id="Stroke-12" stroke="#004987" stroke-width="2.5"></path>
                                <path d="M14.5395,39.6875 L17.7985,44.1055 L22.0975,39.0835 L15.7335,34.4045 L8.0135,36.3745 C8.0135,36.3745 2.0675,37.9105 1.4355,42.8145 L0.2495,60.3745" id="Stroke-14" stroke="#004987" stroke-width="2.5" stroke-linecap="round" stroke-linejoin="round"></path>
                                <path d="M34.0488,39.6875 L30.7898,44.1055 L26.4908,39.0835 L32.8548,34.4045 L40.5748,36.3745 C40.5748,36.3745 46.5208,37.9105 47.1528,42.8145 L47.2658,44.5015" id="Stroke-16" stroke="#004987" stroke-width="2.5" stroke-linecap="round" stroke-linejoin="round"></path>
                            </g>
                        </g>
                    </g>
                </g>
            </g>
        </g>
    </g>
</svg>