<svg width="69px" height="57px" viewBox="0 0 69 57" version="1.1" xmlns="http://www.w3.org/2000/svg" xmlns:xlink="http://www.w3.org/1999/xlink">
    <!-- Generator: Sketch 51.2 (57519) - http://www.bohemiancoding.com/sketch -->
    <desc>Created with Sketch.</desc>
    <defs></defs>
    <g id="Page-1" stroke="none" stroke-width="1" fill="none" fill-rule="evenodd">
        <g id="Home-Screen" transform="translate(-61.000000, -135.000000)" stroke-width="2.5">
            <g id="Group-8" transform="translate(17.000000, 97.000000)">
                <g id="Group-5" transform="translate(29.000000, 39.000000)">
                    <g id="Group-15" transform="translate(16.000000, 0.000000)">
                        <path d="M65.3432,37.498 C65.6822,44.381 60.3782,50.233 53.4952,50.572 C46.6132,50.91 40.7592,45.605 40.4192,38.725 C40.0812,31.842 45.3852,25.986 52.2682,25.647 C59.1512,25.31 65.0032,30.614 65.3432,37.498 Z" id="Stroke-1" stroke="#7D9FC2"></path>
                        <path d="M46.9516,38.4023 C46.8276,35.8813 48.2936,33.6503 50.4676,32.6813" id="Stroke-3" stroke="#7D9FC2" stroke-linecap="round"></path>
                        <path d="M60.8081,47.8057 L66.4501,54.4147" id="Stroke-5" stroke="#7D9FC2" stroke-linecap="round"></path>
                        <polyline id="Stroke-7" stroke="#004987" stroke-linejoin="round" points="38.2246 47.8076 26.1326 52.8856 26.1326 22.4116 52.2536 11.5286 52.2536 21.0666"></polyline>
                        <polyline id="Stroke-9" stroke="#004987" stroke-linecap="round" stroke-linejoin="round" points="12.292 25.0918 12.292 16.7028 37.743 5.9288"></polyline>
                        <polyline id="Stroke-11" stroke="#004987" stroke-linecap="round" stroke-linejoin="round" points="26.1328 22.4121 0.2498 11.5281 0.2498 41.7681 26.1328 52.8861"></polyline>
                        <polyline id="Stroke-13" stroke="#004987" stroke-linecap="round" stroke-linejoin="round" points="0.25 11.5283 25.543 0.2503 52.254 11.5283"></polyline>
                    </g>
                </g>
            </g>
        </g>
    </g>
</svg>